HIERARCHY
ROOT Hips
{
    OFFSET   0.000000   0.000000   0.000000
    CHANNELS 6 Xposition Yposition Zposition Zrotation Xrotation Yrotation
    JOINT Chest
    {
        OFFSET   0.000000   8.007230   0.000000
        CHANNELS 3 Zrotation Xrotation Yrotation
        JOINT Chest2
        {
            OFFSET   0.000000  22.077100   0.000000
            CHANNELS 3 Zrotation Xrotation Yrotation
            JOINT Neck
            {
                OFFSET   0.000000  23.254800  -0.000021
                CHANNELS 3 Zrotation Xrotation Yrotation
                JOINT Head
                {
                    OFFSET   0.000000  14.370000   1.956610
                    CHANNELS 3 Zrotation Xrotation Yrotation
                    End Site
                    {
                        OFFSET   0.000000  19.566000   0.000000
                    }
                }
            }
            JOINT LeftCollar
            {
                OFFSET   3.911900  19.017000  -0.467063
                CHANNELS 3 Zrotation Xrotation Yrotation
                JOINT LeftShoulder
                {
                    OFFSET  10.383700   0.000000   0.000000
                    CHANNELS 3 Zrotation Xrotation Yrotation
                    JOINT LeftElbow
                    {
                        OFFSET  26.662100   0.001529   0.000325
                        CHANNELS 3 Zrotation Xrotation Yrotation
                        JOINT LeftWrist
                        {
                            OFFSET  28.869000  -0.000011  -0.000096
                            CHANNELS 3 Zrotation Xrotation Yrotation
                            JOINT LeftFinger0
                            {
                                OFFSET   2.044650  -2.323460   3.252850
                                CHANNELS 3 Zrotation Xrotation Yrotation
                                JOINT LeftFinger01
                                {
                                    OFFSET   3.088130   0.000000   0.000000
                                    CHANNELS 3 Zrotation Xrotation Yrotation
                                    JOINT LeftFinger02
                                    {
                                        OFFSET   2.639460   0.000000   0.000000
                                        CHANNELS 3 Zrotation Xrotation Yrotation
                                        End Site
                                        {
                                            OFFSET   2.582190   0.000000   0.000000
                                        }
                                    }
                                }
                            }
                            JOINT LeftFinger1
                            {
                                OFFSET   8.364480   0.000000   3.252850
                                CHANNELS 3 Zrotation Xrotation Yrotation
                                JOINT LeftFinger11
                                {
                                    OFFSET   4.646930   0.000000   0.000000
                                    CHANNELS 3 Zrotation Xrotation Yrotation
                                    JOINT LeftFinger12
                                    {
                                        OFFSET   2.323460   0.000000   0.000000
                                        CHANNELS 3 Zrotation Xrotation Yrotation
                                        End Site
                                        {
                                            OFFSET   2.273050   0.000000   0.000000
                                        }
                                    }
                                }
                            }
                            JOINT LeftFinger2
                            {
                                OFFSET   8.364480   0.000016   1.078090
                                CHANNELS 3 Zrotation Xrotation Yrotation
                                JOINT LeftFinger21
                                {
                                    OFFSET   5.111620   0.000000   0.000000
                                    CHANNELS 3 Zrotation Xrotation Yrotation
                                    JOINT LeftFinger22
                                    {
                                        OFFSET   2.788160   0.000017   0.000000
                                        CHANNELS 3 Zrotation Xrotation Yrotation
                                        End Site
                                        {
                                            OFFSET   2.727660   0.000000   0.000000
                                        }
                                    }
                                }
                            }
                            JOINT LeftFinger3
                            {
                                OFFSET   7.899780   0.000015  -1.078090
                                CHANNELS 3 Zrotation Xrotation Yrotation
                                JOINT LeftFinger31
                                {
                                    OFFSET   4.646920   0.000000   0.000000
                                    CHANNELS 3 Zrotation Xrotation Yrotation
                                    JOINT LeftFinger32
                                    {
                                        OFFSET   2.323470   0.000000   0.000000
                                        CHANNELS 3 Zrotation Xrotation Yrotation
                                        End Site
                                        {
                                            OFFSET   2.273050   0.000000   0.000000
                                        }
                                    }
                                }
                            }
                            JOINT LeftFinger4
                            {
                                OFFSET   7.435090   0.000000  -3.252850
                                CHANNELS 3 Zrotation Xrotation Yrotation
                                JOINT LeftFinger41
                                {
                                    OFFSET   3.717550   0.000000   0.000000
                                    CHANNELS 3 Zrotation Xrotation Yrotation
                                    JOINT LeftFinger42
                                    {
                                        OFFSET   1.858760   0.000000   0.000000
                                        CHANNELS 3 Zrotation Xrotation Yrotation
                                        End Site
                                        {
                                            OFFSET   1.818440   0.000000   0.000000
                                        }
                                    }
                                }
                            }
                        }
                    }
                }
            }
            JOINT RightCollar
            {
                OFFSET  -3.911900  19.017000  -0.467062
                CHANNELS 3 Zrotation Xrotation Yrotation
                JOINT RightShoulder
                {
                    OFFSET -10.383700   0.000015   0.000000
                    CHANNELS 3 Zrotation Xrotation Yrotation
                    JOINT RightElbow
                    {
                        OFFSET -26.662100   0.001341   0.000385
                        CHANNELS 3 Zrotation Xrotation Yrotation
                        JOINT RightWrist
                        {
                            OFFSET -28.869000   0.000025  -0.000080
                            CHANNELS 3 Zrotation Xrotation Yrotation
                            JOINT RightFinger0
                            {
                                OFFSET  -2.044650  -2.323490   3.252850
                                CHANNELS 3 Zrotation Xrotation Yrotation
                                JOINT RightFinger01
                                {
                                    OFFSET  -3.088130   0.000000   0.000000
                                    CHANNELS 3 Zrotation Xrotation Yrotation
                                    JOINT RightFinger02
                                    {
                                        OFFSET  -2.639460   0.000000   0.000000
                                        CHANNELS 3 Zrotation Xrotation Yrotation
                                        End Site
                                        {
                                            OFFSET  -2.582190   0.000000   0.000000
                                        }
                                    }
                                }
                            }
                            JOINT RightFinger1
                            {
                                OFFSET  -8.364480   0.000000   3.252850
                                CHANNELS 3 Zrotation Xrotation Yrotation
                                JOINT RightFinger11
                                {
                                    OFFSET  -4.646930   0.000000   0.000000
                                    CHANNELS 3 Zrotation Xrotation Yrotation
                                    JOINT RightFinger12
                                    {
                                        OFFSET  -2.323470   0.000000   0.000000
                                        CHANNELS 3 Zrotation Xrotation Yrotation
                                        End Site
                                        {
                                            OFFSET  -2.273050   0.000000   0.000000
                                        }
                                    }
                                }
                            }
                            JOINT RightFinger2
                            {
                                OFFSET  -8.364480   0.000000   1.078090
                                CHANNELS 3 Zrotation Xrotation Yrotation
                                JOINT RightFinger21
                                {
                                    OFFSET  -5.111610   0.000000   0.000000
                                    CHANNELS 3 Zrotation Xrotation Yrotation
                                    JOINT RightFinger22
                                    {
                                        OFFSET  -2.788160   0.000000   0.000000
                                        CHANNELS 3 Zrotation Xrotation Yrotation
                                        End Site
                                        {
                                            OFFSET  -2.727660   0.000000   0.000000
                                        }
                                    }
                                }
                            }
                            JOINT RightFinger3
                            {
                                OFFSET  -7.899780   0.000000  -1.078090
                                CHANNELS 3 Zrotation Xrotation Yrotation
                                JOINT RightFinger31
                                {
                                    OFFSET  -4.646920   0.000000   0.000000
                                    CHANNELS 3 Zrotation Xrotation Yrotation
                                    JOINT RightFinger32
                                    {
                                        OFFSET  -2.323470   0.000000   0.000000
                                        CHANNELS 3 Zrotation Xrotation Yrotation
                                        End Site
                                        {
                                            OFFSET  -2.273050   0.000000   0.000000
                                        }
                                    }
                                }
                            }
                            JOINT RightFinger4
                            {
                                OFFSET  -7.435090   0.000000  -3.252850
                                CHANNELS 3 Zrotation Xrotation Yrotation
                                JOINT RightFinger41
                                {
                                    OFFSET  -3.717550   0.000000   0.000000
                                    CHANNELS 3 Zrotation Xrotation Yrotation
                                    JOINT RightFinger42
                                    {
                                        OFFSET  -1.858770   0.000000   0.000000
                                        CHANNELS 3 Zrotation Xrotation Yrotation
                                        End Site
                                        {
                                            OFFSET  -1.818440   0.000000   0.000000
                                        }
                                    }
                                }
                            }
                        }
                    }
                }
            }
        }
    }
    JOINT LeftHip
    {
        OFFSET   9.783010   0.000000   0.000000
        CHANNELS 3 Zrotation Xrotation Yrotation
        JOINT LeftKnee
        {
            OFFSET   0.000070 -41.789100   0.000028
            CHANNELS 3 Zrotation Xrotation Yrotation
            JOINT LeftAnkle
            {
                OFFSET   0.000087 -41.133200  -0.000100
                CHANNELS 3 Zrotation Xrotation Yrotation
                JOINT LeftToe
                {
                    OFFSET   0.000000  -6.358960  14.674500
                    CHANNELS 3 Zrotation Xrotation Yrotation
                    End Site
                    {
                        OFFSET   0.000000   0.000000   3.913200
                    }
                }
            }
        }
    }
    JOINT RightHip
    {
        OFFSET  -9.783020   0.000000   0.000000
        CHANNELS 3 Zrotation Xrotation Yrotation
        JOINT RightKnee
        {
            OFFSET   0.000044 -41.789100  -0.000870
            CHANNELS 3 Zrotation Xrotation Yrotation
            JOINT RightAnkle
            {
                OFFSET  -0.000090 -41.133200  -0.000245
                CHANNELS 3 Zrotation Xrotation Yrotation
                JOINT RightToe
                {
                    OFFSET   0.000000  -6.358960  14.674500
                    CHANNELS 3 Zrotation Xrotation Yrotation
                    End Site
                    {
                        OFFSET   0.000000   0.000000   3.913200
                    }
                }
            }
        }
    }
}
MOTION
Frames: 5
Frame Time:   0.016667
  0.952873  89.445700   3.889820  -1.444160   0.486430   1.405660   0.601562   1.539220   0.563357   1.188590   3.084200   1.111120  -1.336050   0.117421   0.005276  -2.194920   0.237414   0.839525  -3.333060   1.823170   4.158890 -79.674900   5.682340   1.550950  -0.604092   3.521680 -15.483000   8.411650  -5.797330  -4.447550  38.102200  30.216000 -51.821300 -32.897100  -0.002290   0.006277 -11.450000   0.013954   0.002834 -30.839000  -0.969681   1.623590 -25.242700  -0.007883   0.000643 -17.673400  -0.005627   0.001574 -24.925000  -4.234590   9.013400 -25.259500   0.001890   0.005419 -16.822800  -0.001381  -0.010784 -28.231300  -4.743230   8.754120 -37.406200   0.002812   0.001715 -24.912500   0.002002   0.000156 -34.050900  -5.607310   8.231370 -51.682100   0.002692  -0.002355 -34.420300   0.001525   0.000948   9.605180   3.705160   2.994840  70.146700  -3.849400  -0.860825   4.709600  -5.137080  12.374200 -15.937000   1.316290   1.507960 -39.793700  36.579600  75.409000  29.366500   0.000910  -0.006305   9.683260   0.002365   0.001677  25.388800   1.204820   2.538020  20.794200  -0.005868   0.005111  14.555900  -0.002562   0.000877  32.648500  -2.895320  -4.509230  49.129700  -0.002501  -0.000209  32.730200   0.005075  -0.000159  34.724600  -3.057030  -4.401320  52.252100  -0.005257  -0.000729  34.799900   0.006074  -0.000509  43.197400  -3.672700  -3.902670  64.983900   0.010808  -0.003015  43.279300   0.002916   0.003105   3.041120   2.365900  -2.026710  -0.440106   0.140993   8.793250  -2.252100  -3.558780  -0.224292  -0.000000   0.000000   0.000000  -0.228024   3.347300  -6.244190   1.056820   0.666946 -14.625800   1.000430  -3.746660  -0.051525   0.000000   0.000000  -0.000000
  0.953268  89.445700   3.901280  -1.444160   0.486428   1.419380   0.605624   1.539180   0.562584   1.196730   3.084160   1.109470  -1.324790   0.100303   0.005308  -2.176470   0.202757   0.834639  -3.341580   1.823230   4.171910 -79.685500   5.695250   1.543230  -0.604770   3.521800 -15.475800   8.406690  -5.792010  -4.447950  38.103500  30.216500 -51.822200 -32.892300  -0.002297   0.006290 -11.450200   0.014094   0.002831 -30.838400  -0.974056   1.630960 -25.242400  -0.007889   0.000690 -17.673100  -0.005683   0.001575 -24.925000  -4.234560   9.013400 -25.259500   0.002028   0.005468 -16.822800  -0.001253  -0.010880 -28.231200  -4.743470   8.754600 -37.397200   0.003008   0.001604 -24.906500   0.002146   0.000193 -34.045500  -5.607250   8.231790 -51.674000   0.002904  -0.002356 -34.414900   0.001640   0.001030   9.618530   3.692180   3.020770  70.141600  -3.837880  -0.870342   4.701560  -5.140990  12.365400 -15.935200   1.334270   1.520250 -39.799000  36.584400  75.437100  29.352400   0.000898  -0.006312   9.676170   0.002365   0.001682  25.388000   1.213820   2.556400  20.794400  -0.005866   0.005107  14.556000  -0.002563   0.000875  32.651800  -2.875340  -4.477150  49.137100  -0.002495  -0.000222  32.730200   0.005076  -0.000165  34.727900  -3.035940  -4.369960  52.259800  -0.005257  -0.000733  34.805000   0.006070  -0.000511  43.206300  -3.647340  -3.874640  64.994500   0.010810  -0.003014  43.286300   0.002911   0.003099   3.046160   2.384680  -2.021870  -0.439544   0.108850   8.773330  -2.254370  -3.544290  -0.223743   0.000000   0.000000   0.000000  -0.228020   3.455290  -6.247000   1.085890   0.567740 -14.616300   0.987294  -3.755040  -0.073707   0.000000   0.000000   0.000000
  0.953663  89.445700   3.919800  -1.444230   0.486423   1.441110   0.613042   1.539150   0.560327   1.211650   3.084130   1.104750  -1.306850   0.073901   0.005341  -2.147070   0.149311   0.827639  -3.357070   1.823260   4.194680 -79.703800   5.722650   1.532020  -0.605735   3.522000 -15.463900   8.401000  -5.780360  -4.448290  38.111100  30.221400 -51.826200 -32.887500  -0.002310   0.006309 -11.450500   0.014391   0.002829 -30.837600  -0.980732   1.642140 -25.242100  -0.007901   0.000790 -17.672900  -0.005795   0.001578 -24.925000  -4.234510   9.013400 -25.259500   0.002222   0.005571 -16.822800  -0.001042  -0.011084 -28.231100  -4.743720   8.755070 -37.388200   0.003282   0.001419 -24.900500   0.002348   0.000256 -34.036700  -5.606850   8.232210 -51.660800   0.003200  -0.002358 -34.406100   0.001801   0.001144   9.638200   3.661990   3.064110  70.132800  -3.812140  -0.883769   4.689210  -5.144900  12.356500 -15.929600   1.366070   1.545580 -39.805700  36.592600  75.474900  29.338200   0.000886  -0.006326   9.669080   0.002365   0.001688  25.387200   1.222810   2.574780  20.794500  -0.005859   0.005095  14.556100  -0.002566   0.000870  32.655200  -2.855360  -4.445070  49.144500  -0.002480  -0.000255  32.730200   0.005079  -0.000182  34.731200  -3.014840  -4.338600  52.268100  -0.005257  -0.000742  34.810500   0.006059  -0.000518  43.215100  -3.621970  -3.846620  65.005000   0.010814  -0.003012  43.293400   0.002896   0.003084   3.053720   2.412720  -2.015030  -0.438991   0.076705   8.743690  -2.259010  -3.529790  -0.223193  -0.000000   0.000000  -0.000000  -0.227772   3.563260  -6.253580   1.114930   0.468542 -14.599000   0.965878  -3.769690  -0.110011   0.000000   0.000000   0.000000
  0.953648  89.445400   3.933470  -1.444330   0.484099   1.456770   0.621042   1.543780   0.556327   1.227730   3.093420   1.096470  -1.295770   0.058394   0.005339  -2.128900   0.117926   0.824918  -3.372140   1.816160   4.216330 -79.721800   5.754890   1.528320  -0.606930   3.519670 -15.454600   8.401730  -5.764280  -4.445170  38.118800  30.236600 -51.835600 -32.888800  -0.002325   0.006324 -11.450600   0.014801   0.002840 -30.839300  -0.984946   1.649070 -25.243700  -0.007916   0.000927 -17.673000  -0.005940   0.001581 -24.943000  -4.234550   9.008850 -25.277300   0.002306   0.005712 -16.834600  -0.000830  -0.011362 -28.231700  -4.741970   8.751620 -37.391000   0.003399   0.001234 -24.902300   0.002435   0.000319 -34.030000  -5.603150   8.229090 -51.648700   0.003328  -0.002363 -34.398900   0.001871   0.001193   9.647940   3.620600   3.102770  70.124200  -3.788370  -0.889914   4.678710  -5.120140  12.363800 -15.916300   1.391630   1.579490 -39.802900  36.595800  75.481300  29.343300   0.000890  -0.006347   9.672390   0.002371   0.001681  25.387500   1.218970   2.566000  20.794500  -0.005849   0.005076  14.556100  -0.002570   0.000864  32.654200  -2.860010  -4.450350  49.144400  -0.002457  -0.000308  32.730200   0.005084  -0.000208  34.731100  -3.019790  -4.343730  52.268700  -0.005258  -0.000757  34.810900   0.006041  -0.000528  43.211700  -3.625840  -3.851300  65.000300   0.010820  -0.003009  43.290300   0.002873   0.003059   3.057770   2.423320  -2.012420  -0.437969   0.077585   8.727340  -2.265030  -3.534700  -0.223245  -0.000000   0.000000   0.000000  -0.227699   3.465050  -6.263800   1.112640   0.571374 -14.581600   0.950009  -3.783050  -0.137754   0.000000   0.000000   0.000000
  0.953547  89.444900   3.946260  -1.444420   0.475197   1.469780   0.628240   1.555970   0.551480   1.242150   3.117810   1.086460  -1.282570   0.043152   0.005330  -2.107210   0.087105   0.822612  -3.387130   1.801280   4.236840 -79.737500   5.798330   1.523130  -0.610068   3.508840 -15.445400   8.402860  -5.746690  -4.439280  38.124600  30.257500 -51.843600 -32.890200  -0.002334   0.006332 -11.450600   0.015211   0.002851 -30.843900  -0.988082   1.654060 -25.247700  -0.007927   0.001064 -17.673400  -0.006072   0.001585 -24.975700  -4.234640   9.000610 -25.309500   0.002334   0.005853 -16.856100  -0.000703  -0.011641 -28.232700  -4.738840   8.745510 -37.397800   0.003438   0.001122 -24.906900   0.002464   0.000357 -34.025100  -5.597850   8.223590 -51.641600   0.003370  -0.002369 -34.393300   0.001894   0.001210   9.655810   3.567490   3.134140  70.117300  -3.735680  -0.892104   4.665860  -5.095390  12.371200 -15.907500   1.426850   1.612210 -39.805200  36.604800  75.487600  29.348300   0.000894  -0.006371   9.675690   0.002376   0.001669  25.388000   1.213690   2.555490  20.794200  -0.005835   0.005050  14.555900  -0.002576   0.000855  32.651000  -2.864660  -4.455620  49.143900  -0.002426  -0.000376  32.729800   0.005091  -0.000241  34.731000  -3.024750  -4.348850  52.268800  -0.005258  -0.000776  34.811000   0.006016  -0.000541  43.202800  -3.629710  -3.856470  64.987500   0.010829  -0.003005  43.281700   0.002842   0.003027   3.061260   2.440130  -2.010680  -0.436952   0.078465   8.715480  -2.270950  -3.539620  -0.223298  -0.000000   0.000000  -0.000000  -0.225637   3.349980  -6.274300   1.115510   0.715782 -14.562600   0.934225  -3.796720  -0.164496   0.000000   0.000000   0.000000
